<?xml version="1.0" encoding="UTF-8"?>
<svg id="Layer_1" xmlns="http://www.w3.org/2000/svg" version="1.1" viewBox="0 0 700 378.5">
  <!-- Generator: Adobe Illustrator 30.5.0, SVG Export Plug-In . SVG Version: 2.1.4 Build 167)  -->
  <defs>
    <style>
      .st0 {
        fill: #fff;
      }
    </style>
  </defs>
  <path class="st0" d="M239.22,0h142.32c1.95,0,3.53,1.58,3.53,3.53v277.57c0,40.88-30.28,72.17-73.68,72.17h-1.51c-1.95,0-3.53,1.58-3.53,3.53v18.17c0,1.95-1.58,3.53-3.53,3.53h-63.59c-1.95,0-3.53-1.58-3.53-3.53V3.53c0-1.95,1.58-3.53,3.53-3.53ZM310.89,287.66c2.02,0,3.53-3.53,3.53-7.07V68.63c0-1.95-1.58-3.53-3.53-3.53h-1.01c-1.95,0-3.53,1.58-3.53,3.53v215.5c0,1.95,1.58,3.53,3.53,3.53h1.01Z"/>
  <path class="st0" d="M396.18,0h142.32c1.95,0,3.53,1.58,3.53,3.53v21.2c0,1.95-1.58,3.53-3.53,3.53h-142.32c-1.95,0-3.53-1.58-3.53-3.53V3.53c0-1.95,1.58-3.53,3.53-3.53ZM396.18,36.33h142.32c1.95,0,3.53,1.58,3.53,3.53v335.1c0,1.95-1.58,3.53-3.53,3.53h-63.59c-1.95,0-3.53-1.58-3.53-3.53v-68.64c0-1.95-1.58-3.53-3.53-3.53h-1.01c-1.95,0-3.53,1.58-3.53,3.53v68.64c0,1.95-1.58,3.53-3.53,3.53h-63.59c-1.95,0-3.53-1.58-3.53-3.53V39.87c0-1.95,1.58-3.53,3.53-3.53ZM471.38,233.66V104.97c0-1.95-1.58-3.53-3.53-3.53h-1.01c-1.95,0-3.53,1.58-3.53,3.53v128.69c0,1.95,1.58,3.53,3.53,3.53h1.01c1.95,0,3.53-1.58,3.53-3.53Z"/>
  <path class="st0" d="M553.65,0h142.32c1.95,0,3.53,1.58,3.53,3.53v205.9c0,18.24-5.98,34.61-16.65,47.18-1.95,2.29-.32,5.81,2.69,5.81h10.93c1.95,0,3.53,1.58,3.53,3.53v109.01c0,1.95-1.58,3.53-3.53,3.53h-63.59c-1.95,0-3.53-1.58-3.53-3.53v-68.64c0-1.95-1.58-3.53-3.53-3.53h-1.52c-1.95,0-3.53,1.58-3.53,3.53v68.64c0,1.95-1.58,3.53-3.53,3.53h-63.59c-1.95,0-3.53-1.58-3.53-3.53V3.53c0-1.95,1.58-3.53,3.53-3.53ZM625.31,237.19c2.02,0,3.53-3.53,3.53-7.06V68.63c0-1.95-1.58-3.53-3.53-3.53h-1.01c-1.95,0-3.53,1.58-3.53,3.53v165.03c0,1.95,1.58,3.53,3.53,3.53h1.01Z"/>
  <path class="st0" d="M224.58,0h-63.59c-1.95,0-3.53,1.58-3.53,3.53v122.13c0,1.95-1.58,3.53-3.53,3.53h-14.17c-3.03,0-4.61-3.52-2.67-5.84,8.2-9.79,12.3-23.06,12.3-40.08V3.53c0-1.95-1.58-3.53-3.53-3.53H3.53C1.58,0,0,1.58,0,3.53v114.06c0,1.95,1.58,3.53,3.53,3.53h63.59c1.95,0,3.53-1.58,3.53-3.53v-48.45c0-1.95,1.58-3.53,3.53-3.53h1.01c1.95,0,3.53,1.58,3.53,3.53v53.5c0,4.04-1.51,6.56-4.04,6.56H3.53c-1.95,0-3.53,1.58-3.53,3.53v58.54c0,1.95,1.58,3.53,3.53,3.53h71.67c1.95,0,3.53,1.58,3.53,3.53v111.03c0,1.95-1.58,3.53-3.53,3.53h0c-2.52,0-4.54-2.02-4.54-7.06v-99.42c0-1.95-1.58-3.53-3.53-3.53H3.53c-1.95,0-3.53,1.58-3.53,3.53v102.95c0,41.38,25.23,69.14,70.65,69.14h75.2c1.95,0,3.53-1.58,3.53-3.53v-174.11c0-1.95,1.58-3.53,3.53-3.53h1.01c1.95,0,3.53,1.58,3.53,3.53v174.11c0,1.95,1.58,3.53,3.53,3.53h63.59c1.95,0,3.53-1.58,3.53-3.53V3.53c0-1.95-1.58-3.53-3.53-3.53Z"/>
</svg>